<svg xmlns="http://www.w3.org/2000/svg" width="920" height="627" viewBox="0 0 920 627">
<style>
text { font-family: Arial, sans-serif; fill:#172033 }
.title { font-size:26px; font-weight:bold } .head { font-size:17px; font-weight:bold; fill:white }
.cell { font-size:15px } .axis { font-size:13px }
.grid { stroke:#b9c7dc; stroke-width:1 } .border { stroke:#263244; stroke-width:1.5 }
</style><rect width="100%" height="100%" fill="white"/>
<text x="105" y="34" class="title">Sprint 1 Burndown Chart</text>
<rect x="105" y="55" width="765" height="42" fill="#397fca" class="border"/>
<text x="310.0" y="82" text-anchor="middle" class="head">User stories / tasks</text><line x1="515.0" y1="55" x2="515.0" y2="177" class="border"/><text x="550.5" y="82" text-anchor="middle" class="head">Start</text><line x1="586.0" y1="55" x2="586.0" y2="177" class="border"/><text x="621.5" y="82" text-anchor="middle" class="head">Hour 1</text><line x1="657.0" y1="55" x2="657.0" y2="177" class="border"/><text x="692.5" y="82" text-anchor="middle" class="head">Hour 2</text><line x1="728.0" y1="55" x2="728.0" y2="177" class="border"/><text x="763.5" y="82" text-anchor="middle" class="head">Hour 3</text><line x1="799.0" y1="55" x2="799.0" y2="177" class="border"/><text x="834.5" y="82" text-anchor="middle" class="head">Hour 4</text><rect x="105" y="97" width="765" height="40" fill="#eef2f7" class="border"/><text x="115" y="123" class="cell">US-01 | User Registration &amp; Login</text><line x1="515.0" y1="97" x2="515.0" y2="137" class="border"/><text x="550.5" y="123" text-anchor="middle" class="cell">4</text><line x1="586.0" y1="97" x2="586.0" y2="137" class="border"/><text x="621.5" y="123" text-anchor="middle" class="cell">3</text><line x1="657.0" y1="97" x2="657.0" y2="137" class="border"/><text x="692.5" y="123" text-anchor="middle" class="cell">2</text><line x1="728.0" y1="97" x2="728.0" y2="137" class="border"/><text x="763.5" y="123" text-anchor="middle" class="cell">1</text><line x1="799.0" y1="97" x2="799.0" y2="137" class="border"/><text x="834.5" y="123" text-anchor="middle" class="cell">0</text><rect x="105" y="137" width="765" height="40" fill="#eef2f7" class="border"/><text x="115" y="163" class="cell">US-02 | Group Creation &amp; Management</text><line x1="515.0" y1="137" x2="515.0" y2="177" class="border"/><text x="550.5" y="163" text-anchor="middle" class="cell">12</text><line x1="586.0" y1="137" x2="586.0" y2="177" class="border"/><text x="621.5" y="163" text-anchor="middle" class="cell">12</text><line x1="657.0" y1="137" x2="657.0" y2="177" class="border"/><text x="692.5" y="163" text-anchor="middle" class="cell">12</text><line x1="728.0" y1="137" x2="728.0" y2="177" class="border"/><text x="763.5" y="163" text-anchor="middle" class="cell">12</text><line x1="799.0" y1="137" x2="799.0" y2="177" class="border"/><text x="834.5" y="163" text-anchor="middle" class="cell">12</text><line x1="105" y1="562.0" x2="870" y2="562.0" class="grid"/><text x="93" y="567.0" text-anchor="end" class="axis">0</text><line x1="105" y1="502.0" x2="870" y2="502.0" class="grid"/><text x="93" y="507.0" text-anchor="end" class="axis">3.2</text><line x1="105" y1="442.0" x2="870" y2="442.0" class="grid"/><text x="93" y="447.0" text-anchor="end" class="axis">6.4</text><line x1="105" y1="382.0" x2="870" y2="382.0" class="grid"/><text x="93" y="387.0" text-anchor="end" class="axis">9.6</text><line x1="105" y1="322.0" x2="870" y2="322.0" class="grid"/><text x="93" y="327.0" text-anchor="end" class="axis">12.8</text><line x1="105" y1="262.0" x2="870" y2="262.0" class="grid"/><text x="93" y="267.0" text-anchor="end" class="axis">16</text><text x="105.0" y="590" text-anchor="middle" class="axis">Start</text><text x="296.25" y="590" text-anchor="middle" class="axis">Hour 1</text><text x="487.5" y="590" text-anchor="middle" class="axis">Hour 2</text><text x="678.75" y="590" text-anchor="middle" class="axis">Hour 3</text><text x="870.0" y="590" text-anchor="middle" class="axis">Hour 4</text><polyline points="105.0,262.0 296.2,280.8 487.5,299.5 678.8,318.2 870.0,337.0" fill="none" stroke="#1769aa" stroke-width="4"/><circle cx="105.0" cy="262.0" r="8" fill="#1594df" stroke="#1769aa" stroke-width="2"/><text x="105.0" y="248.0" text-anchor="middle" class="axis">16h</text><circle cx="296.2" cy="280.8" r="8" fill="#1594df" stroke="#1769aa" stroke-width="2"/><text x="296.2" y="266.8" text-anchor="middle" class="axis">15h</text><circle cx="487.5" cy="299.5" r="8" fill="#1594df" stroke="#1769aa" stroke-width="2"/><text x="487.5" y="285.5" text-anchor="middle" class="axis">14h</text><circle cx="678.8" cy="318.2" r="8" fill="#1594df" stroke="#1769aa" stroke-width="2"/><text x="678.8" y="304.2" text-anchor="middle" class="axis">13h</text><circle cx="870.0" cy="337.0" r="8" fill="#1594df" stroke="#1769aa" stroke-width="2"/><text x="870.0" y="323.0" text-anchor="middle" class="axis">12h</text><text x="28" y="412.0" transform="rotate(-90 28 412.0)" text-anchor="middle" class="cell">Remaining hours</text></svg>