<svg xmlns="http://www.w3.org/2000/svg" width="920" height="667" viewBox="0 0 920 667">
<style>
text { font-family: Arial, sans-serif; fill:#172033 }
.title { font-size:26px; font-weight:bold } .head { font-size:17px; font-weight:bold; fill:white }
.cell { font-size:15px } .axis { font-size:13px }
.grid { stroke:#b9c7dc; stroke-width:1 } .border { stroke:#263244; stroke-width:1.5 }
</style><rect width="100%" height="100%" fill="white"/>
<text x="105" y="34" class="title">Sprint 4 Burndown Chart</text>
<rect x="105" y="55" width="765" height="42" fill="#397fca" class="border"/>
<text x="310.0" y="82" text-anchor="middle" class="head">User stories / tasks</text><line x1="515.0" y1="55" x2="515.0" y2="217" class="border"/><text x="692.5" y="82" text-anchor="middle" class="head">Start</text><rect x="105" y="97" width="765" height="40" fill="#eef2f7" class="border"/><text x="115" y="123" class="cell">US-10 | Spending Reports &amp; Charts</text><line x1="515.0" y1="97" x2="515.0" y2="137" class="border"/><text x="692.5" y="123" text-anchor="middle" class="cell">8</text><rect x="105" y="137" width="765" height="40" fill="#eef2f7" class="border"/><text x="115" y="163" class="cell">US-11 | Spending Insights</text><line x1="515.0" y1="137" x2="515.0" y2="177" class="border"/><text x="692.5" y="163" text-anchor="middle" class="cell">5</text><rect x="105" y="177" width="765" height="40" fill="#eef2f7" class="border"/><text x="115" y="203" class="cell">US-12 | Who Should Pay Next?</text><line x1="515.0" y1="177" x2="515.0" y2="217" class="border"/><text x="692.5" y="203" text-anchor="middle" class="cell">8</text><line x1="105" y1="602.0" x2="870" y2="602.0" class="grid"/><text x="93" y="607.0" text-anchor="end" class="axis">0</text><line x1="105" y1="542.0" x2="870" y2="542.0" class="grid"/><text x="93" y="547.0" text-anchor="end" class="axis">4.2</text><line x1="105" y1="482.0" x2="870" y2="482.0" class="grid"/><text x="93" y="487.0" text-anchor="end" class="axis">8.4</text><line x1="105" y1="422.0" x2="870" y2="422.0" class="grid"/><text x="93" y="427.0" text-anchor="end" class="axis">12.6</text><line x1="105" y1="362.0" x2="870" y2="362.0" class="grid"/><text x="93" y="367.0" text-anchor="end" class="axis">16.8</text><line x1="105" y1="302.0" x2="870" y2="302.0" class="grid"/><text x="93" y="307.0" text-anchor="end" class="axis">21</text><text x="487.5" y="630" text-anchor="middle" class="axis">Start</text><polyline points="487.5,302.0" fill="none" stroke="#1769aa" stroke-width="4"/><circle cx="487.5" cy="302.0" r="8" fill="#1594df" stroke="#1769aa" stroke-width="2"/><text x="487.5" y="288.0" text-anchor="middle" class="axis">21h</text><text x="28" y="452.0" transform="rotate(-90 28 452.0)" text-anchor="middle" class="cell">Remaining hours</text></svg>