<svg xmlns="http://www.w3.org/2000/svg" width="920" height="707" viewBox="0 0 920 707">
<style>
text { font-family: Arial, sans-serif; fill:#172033 }
.title { font-size:26px; font-weight:bold } .head { font-size:17px; font-weight:bold; fill:white }
.cell { font-size:15px } .axis { font-size:13px }
.grid { stroke:#b9c7dc; stroke-width:1 } .border { stroke:#263244; stroke-width:1.5 }
</style><rect width="100%" height="100%" fill="white"/>
<text x="105" y="34" class="title">Sprint 2 Burndown Chart</text>
<rect x="105" y="55" width="765" height="42" fill="#397fca" class="border"/>
<text x="310.0" y="82" text-anchor="middle" class="head">User stories / tasks</text><line x1="515.0" y1="55" x2="515.0" y2="257" class="border"/><text x="692.5" y="82" text-anchor="middle" class="head">Start</text><rect x="105" y="97" width="765" height="40" fill="#eef2f7" class="border"/><text x="115" y="123" class="cell">US-03 | Add/Edit/Delete Expense + Receipt Upload</text><line x1="515.0" y1="97" x2="515.0" y2="137" class="border"/><text x="692.5" y="123" text-anchor="middle" class="cell">21</text><rect x="105" y="137" width="765" height="40" fill="#eef2f7" class="border"/><text x="115" y="163" class="cell">US-04 | Multiple Expense Split Options</text><line x1="515.0" y1="137" x2="515.0" y2="177" class="border"/><text x="692.5" y="163" text-anchor="middle" class="cell">13</text><rect x="105" y="177" width="765" height="40" fill="#eef2f7" class="border"/><text x="115" y="203" class="cell">US-05 | Automatic Balance Calculation</text><line x1="515.0" y1="177" x2="515.0" y2="217" class="border"/><text x="692.5" y="203" text-anchor="middle" class="cell">8</text><rect x="105" y="217" width="765" height="40" fill="#eef2f7" class="border"/><text x="115" y="243" class="cell">US-06 | Smart Settlement Calculation</text><line x1="515.0" y1="217" x2="515.0" y2="257" class="border"/><text x="692.5" y="243" text-anchor="middle" class="cell">21</text><line x1="105" y1="642.0" x2="870" y2="642.0" class="grid"/><text x="93" y="647.0" text-anchor="end" class="axis">0</text><line x1="105" y1="582.0" x2="870" y2="582.0" class="grid"/><text x="93" y="587.0" text-anchor="end" class="axis">12.6</text><line x1="105" y1="522.0" x2="870" y2="522.0" class="grid"/><text x="93" y="527.0" text-anchor="end" class="axis">25.2</text><line x1="105" y1="462.0" x2="870" y2="462.0" class="grid"/><text x="93" y="467.0" text-anchor="end" class="axis">37.8</text><line x1="105" y1="402.0" x2="870" y2="402.0" class="grid"/><text x="93" y="407.0" text-anchor="end" class="axis">50.4</text><line x1="105" y1="342.0" x2="870" y2="342.0" class="grid"/><text x="93" y="347.0" text-anchor="end" class="axis">63</text><text x="487.5" y="670" text-anchor="middle" class="axis">Start</text><polyline points="487.5,342.0" fill="none" stroke="#1769aa" stroke-width="4"/><circle cx="487.5" cy="342.0" r="8" fill="#1594df" stroke="#1769aa" stroke-width="2"/><text x="487.5" y="328.0" text-anchor="middle" class="axis">63h</text><text x="28" y="492.0" transform="rotate(-90 28 492.0)" text-anchor="middle" class="cell">Remaining hours</text></svg>